<svg width="22" height="22" viewBox="0 0 22 22" fill="none" xmlns="http://www.w3.org/2000/svg">
<path d="M0 4.8125C0 4.63016 0.0724328 4.4553 0.201364 4.32636C0.330295 4.19743 0.505164 4.125 0.6875 4.125H21.3125C21.4948 4.125 21.6697 4.19743 21.7986 4.32636C21.9276 4.4553 22 4.63016 22 4.8125V7.5625C22 7.74484 21.9276 7.9197 21.7986 8.04864C21.6697 8.17757 21.4948 8.25 21.3125 8.25H0.6875C0.505164 8.25 0.330295 8.17757 0.201364 8.04864C0.0724328 7.9197 0 7.74484 0 7.5625V4.8125ZM0 11.6875C0 11.5052 0.0724328 11.3303 0.201364 11.2014C0.330295 11.0724 0.505164 11 0.6875 11H21.3125C21.4948 11 21.6697 11.0724 21.7986 11.2014C21.9276 11.3303 22 11.5052 22 11.6875V13.0625C22 13.2448 21.9276 13.4197 21.7986 13.5486C21.6697 13.6776 21.4948 13.75 21.3125 13.75H0.6875C0.505164 13.75 0.330295 13.6776 0.201364 13.5486C0.0724328 13.4197 0 13.2448 0 13.0625V11.6875ZM0 17.1875C0 17.0052 0.0724328 16.8303 0.201364 16.7014C0.330295 16.5724 0.505164 16.5 0.6875 16.5H21.3125C21.4948 16.5 21.6697 16.5724 21.7986 16.7014C21.9276 16.8303 22 17.0052 22 17.1875C22 17.3698 21.9276 17.5447 21.7986 17.6736C21.6697 17.8026 21.4948 17.875 21.3125 17.875H0.6875C0.505164 17.875 0.330295 17.8026 0.201364 17.6736C0.0724328 17.5447 0 17.3698 0 17.1875Z" fill="#303E44"/>
</svg>
